<?xml version="1.0" encoding="UTF-8"?>
<!DOCTYPE svg PUBLIC "-//W3C//DTD SVG 1.1//EN" "http://www.w3.org/Graphics/SVG/1.1/DTD/svg11.dtd">
<svg xmlns="http://www.w3.org/2000/svg" version="1.1" width="512px" height="512px" style="shape-rendering:geometricPrecision; text-rendering:geometricPrecision; image-rendering:optimizeQuality; fill-rule:evenodd; clip-rule:evenodd" xmlns:xlink="http://www.w3.org/1999/xlink">
<g><path style="opacity:0.973" fill="#000000" d="M 261.5,-0.5 C 265.167,-0.5 268.833,-0.5 272.5,-0.5C 276.093,1.25648 278.926,3.92315 281,7.5C 308.402,73.8738 335.902,140.207 363.5,206.5C 408.496,207.333 453.496,207.833 498.5,208C 504.357,209.245 508.691,212.412 511.5,217.5C 511.5,312.5 511.5,407.5 511.5,502.5C 510.196,503.987 509.03,505.654 508,507.5C 505.985,508.697 504.151,510.03 502.5,511.5C 407.5,511.5 312.5,511.5 217.5,511.5C 212.126,508.444 208.959,503.777 208,497.5C 207.667,448.833 207.333,400.167 207,351.5C 179.573,363.129 152.073,374.629 124.5,386C 117.755,387.702 111.922,386.202 107,381.5C 71.0523,295.808 35.2189,210.141 -0.5,124.5C -0.5,120.833 -0.5,117.167 -0.5,113.5C 1.6467,109.189 4.98004,106.022 9.5,104C 93.7035,69.3902 177.704,34.5568 261.5,-0.5 Z M 255.5,35.5 C 257.911,35.1367 259.411,36.1367 260,38.5C 283.069,94.5404 306.236,150.54 329.5,206.5C 304.175,207.5 278.842,207.833 253.5,207.5C 255.359,199.408 254.192,191.742 250,184.5C 242.333,166.5 234.667,148.5 227,130.5C 219.694,124.034 211.861,123.2 203.5,128C 184.581,136.195 165.581,144.195 146.5,152C 137.167,160.667 137.167,169.333 146.5,178C 151.683,180.815 157.016,181.148 162.5,179C 177.181,173.219 191.681,167.052 206,160.5C 212.371,176.073 218.871,191.573 225.5,207C 215.747,207.272 209.914,212.106 208,221.5C 207.5,253.832 207.333,286.165 207.5,318.5C 181.085,328.871 154.752,339.538 128.5,350.5C 127.914,350.291 127.414,349.957 127,349.5C 96.5,276 66,202.5 35.5,129C 36.5202,126.974 38.1868,125.641 40.5,125C 112.485,95.6663 184.152,65.8329 255.5,35.5 Z M 238.5,238.5 C 319.5,238.5 400.5,238.5 481.5,238.5C 481.5,319.5 481.5,400.5 481.5,481.5C 400.5,481.5 319.5,481.5 238.5,481.5C 238.5,400.5 238.5,319.5 238.5,238.5 Z"/></g>
<g><path style="opacity:0.961" fill="#000000" d="M 331.5,304.5 C 355.836,304.333 380.169,304.5 404.5,305C 410,306.5 413.5,310 415,315.5C 415.667,339.833 415.667,364.167 415,388.5C 410.067,399.041 402.234,401.874 391.5,397C 388.165,394.659 385.998,391.493 385,387.5C 384.5,370.17 384.333,352.837 384.5,335.5C 367.163,335.667 349.83,335.5 332.5,335C 320.873,330.231 317.706,322.064 323,310.5C 325.322,307.605 328.155,305.605 331.5,304.5 Z"/></g>
</svg>
